HIERARCHY
ROOT hip
{
  OFFSET 5.70873 43.8894 -1.52928
  CHANNELS 6 Xposition Yposition Zposition Zrotation Xrotation Yrotation
  JOINT abdomen
  {
    OFFSET 0 5.99393 0.287273
    CHANNELS 6 Xposition Yposition Zposition Zrotation Xrotation Yrotation
    JOINT chest
    {
      OFFSET 0 6.65865 -0.856112
      CHANNELS 6 Xposition Yposition Zposition Zrotation Xrotation Yrotation
      JOINT neck
      {
        OFFSET 0 8.65624 -1.42685
        CHANNELS 6 Xposition Yposition Zposition Zrotation Xrotation Yrotation
        JOINT head
        {
          OFFSET 0 3.80999 -0.190247
          CHANNELS 6 Xposition Yposition Zposition Zrotation Xrotation Yrotation
          End Site
          {
            OFFSET 0 0 0
          }
        }
      }
      JOINT rCollar
      {
        OFFSET -1.4963 7.5744 -1.52136
        CHANNELS 6 Xposition Yposition Zposition Zrotation Xrotation Yrotation
        JOINT rShldr
        {
          OFFSET -5.47506 -0.905672 0.485692
          CHANNELS 6 Xposition Yposition Zposition Zrotation Xrotation Yrotation
          JOINT rForeArm
          {
            OFFSET -11.3069 -0.201091 0.618544
            CHANNELS 6 Xposition Yposition Zposition Zrotation Xrotation Yrotation
            JOINT rHand
            {
              OFFSET -9.61414 -0.254739 3.48553
              CHANNELS 6 Xposition Yposition Zposition Zrotation Xrotation Yrotation
              JOINT rThumb1
              {
                OFFSET 0.176263 -0.07068 1.26622
                CHANNELS 6 Xposition Yposition Zposition Zrotation Xrotation Yrotation
                JOINT rThumb2
                {
                  OFFSET -1.04683 -0.546484 1.82182
                  CHANNELS 6 Xposition Yposition Zposition Zrotation Xrotation Yrotation
                  JOINT rThumb3
                  {
                    OFFSET -0.993472 -0.621916 0.655506
                    CHANNELS 6 Xposition Yposition Zposition Zrotation Xrotation Yrotation
                    End Site
                    {
                      OFFSET -0.996134 -0.66263 0.644615
                    }
                  }
                }
              }
              JOINT rIndex1
              {
                OFFSET -2.64253 0.566363 2.4162
                CHANNELS 6 Xposition Yposition Zposition Zrotation Xrotation Yrotation
                JOINT rIndex2
                {
                  OFFSET -1.39394 -0.635138 0.899356
                  CHANNELS 6 Xposition Yposition Zposition Zrotation Xrotation Yrotation
                  JOINT rIndex3
                  {
                    OFFSET -0.622395 -0.856016 0.402182
                    CHANNELS 6 Xposition Yposition Zposition Zrotation Xrotation Yrotation
                    End Site
                    {
                      OFFSET -0.472476 -0.801802 0.34216
                    }
                  }
                }
              }
              JOINT rMid1
              {
                OFFSET -3.20814 0.514427 1.52547
                CHANNELS 6 Xposition Yposition Zposition Zrotation Xrotation Yrotation
                JOINT rMid2
                {
                  OFFSET -1.56545 -0.497974 0.68919
                  CHANNELS 6 Xposition Yposition Zposition Zrotation Xrotation Yrotation
                  JOINT rMid3
                  {
                    OFFSET -0.679943 -1.17582 0.444246
                    CHANNELS 6 Xposition Yposition Zposition Zrotation Xrotation Yrotation
                    End Site
                    {
                      OFFSET -0.343874 -0.941341 0.267611
                    }
                  }
                }
              }
              JOINT rRing1
              {
                OFFSET -3.47877 0.200518 0.597719
                CHANNELS 6 Xposition Yposition Zposition Zrotation Xrotation Yrotation
                JOINT rRing2
                {
                  OFFSET -1.28208 -0.53155 0.44672
                  CHANNELS 6 Xposition Yposition Zposition Zrotation Xrotation Yrotation
                  JOINT rRing3
                  {
                    OFFSET -0.710288 -0.970167 0.4032
                    CHANNELS 6 Xposition Yposition Zposition Zrotation Xrotation Yrotation
                    End Site
                    {
                      OFFSET -0.403228 -0.950952 0.378354
                    }
                  }
                }
              }
              JOINT rPinky1
              {
                OFFSET -3.42483 -0.278904 -0.240415
                CHANNELS 6 Xposition Yposition Zposition Zrotation Xrotation Yrotation
                JOINT rPinky2
                {
                  OFFSET -1.05787 -0.635999 0.156459
                  CHANNELS 6 Xposition Yposition Zposition Zrotation Xrotation Yrotation
                  JOINT rPinky3
                  {
                    OFFSET -0.42815 -0.754232 0.287187
                    CHANNELS 6 Xposition Yposition Zposition Zrotation Xrotation Yrotation
                    End Site
                    {
                      OFFSET -0.235717 -0.725605 0.279416
                    }
                  }
                }
              }
            }
          }
        }
      }
      JOINT lCollar
      {
        OFFSET 1.4963 7.5744 -1.52136
        CHANNELS 6 Xposition Yposition Zposition Zrotation Xrotation Yrotation
        JOINT lShldr
        {
          OFFSET 5.47506 -0.905672 0.485692
          CHANNELS 6 Xposition Yposition Zposition Zrotation Xrotation Yrotation
          JOINT lForeArm
          {
            OFFSET 11.3069 -0.201091 0.618544
            CHANNELS 6 Xposition Yposition Zposition Zrotation Xrotation Yrotation
            JOINT lHand
            {
              OFFSET 9.61414 -0.254739 3.48553
              CHANNELS 6 Xposition Yposition Zposition Zrotation Xrotation Yrotation
              JOINT lThumb1
              {
                OFFSET -0.176263 -0.07068 1.26622
                CHANNELS 6 Xposition Yposition Zposition Zrotation Xrotation Yrotation
                JOINT lThumb2
                {
                  OFFSET 1.04683 -0.546484 1.82182
                  CHANNELS 6 Xposition Yposition Zposition Zrotation Xrotation Yrotation
                  JOINT lThumb3
                  {
                    OFFSET 0.993472 -0.621916 0.655506
                    CHANNELS 6 Xposition Yposition Zposition Zrotation Xrotation Yrotation
                    End Site
                    {
                      OFFSET 0.996134 -0.66263 0.644615
                    }
                  }
                }
              }
              JOINT lIndex1
              {
                OFFSET 2.64253 0.566363 2.4162
                CHANNELS 6 Xposition Yposition Zposition Zrotation Xrotation Yrotation
                JOINT lIndex2
                {
                  OFFSET 1.39394 -0.635138 0.899356
                  CHANNELS 6 Xposition Yposition Zposition Zrotation Xrotation Yrotation
                  JOINT lIndex3
                  {
                    OFFSET 0.622395 -0.856016 0.402182
                    CHANNELS 6 Xposition Yposition Zposition Zrotation Xrotation Yrotation
                    End Site
                    {
                      OFFSET 0.472476 -0.801802 0.34216
                    }
                  }
                }
              }
              JOINT lMid1
              {
                OFFSET 3.20814 0.514427 1.52547
                CHANNELS 6 Xposition Yposition Zposition Zrotation Xrotation Yrotation
                JOINT lMid2
                {
                  OFFSET 1.56545 -0.497974 0.68919
                  CHANNELS 6 Xposition Yposition Zposition Zrotation Xrotation Yrotation
                  JOINT lMid3
                  {
                    OFFSET 0.679943 -1.17582 0.444246
                    CHANNELS 6 Xposition Yposition Zposition Zrotation Xrotation Yrotation
                    End Site
                    {
                      OFFSET 0.343874 -0.941341 0.267611
                    }
                  }
                }
              }
              JOINT lRing1
              {
                OFFSET 3.47877 0.200518 0.597719
                CHANNELS 6 Xposition Yposition Zposition Zrotation Xrotation Yrotation
                JOINT lRing2
                {
                  OFFSET 1.28208 -0.53155 0.44672
                  CHANNELS 6 Xposition Yposition Zposition Zrotation Xrotation Yrotation
                  JOINT lRing3
                  {
                    OFFSET 0.710288 -0.970167 0.4032
                    CHANNELS 6 Xposition Yposition Zposition Zrotation Xrotation Yrotation
                    End Site
                    {
                      OFFSET 0.403228 -0.950952 0.378354
                    }
                  }
                }
              }
              JOINT lPinky1
              {
                OFFSET 3.42483 -0.278904 -0.240415
                CHANNELS 6 Xposition Yposition Zposition Zrotation Xrotation Yrotation
                JOINT lPinky2
                {
                  OFFSET 1.05787 -0.635999 0.156459
                  CHANNELS 6 Xposition Yposition Zposition Zrotation Xrotation Yrotation
                  JOINT lPinky3
                  {
                    OFFSET 0.42815 -0.754232 0.287187
                    CHANNELS 6 Xposition Yposition Zposition Zrotation Xrotation Yrotation
                    End Site
                    {
                      OFFSET 0.235717 -0.725605 0.279416
                    }
                  }
                }
              }
            }
          }
        }
      }
    }
  }
  JOINT rThigh
  {
    OFFSET -4.17848 -1.02486 0.046356
    CHANNELS 6 Xposition Yposition Zposition Zrotation Xrotation Yrotation
    JOINT rShin
    {
      OFFSET 1.27155 -17.465 -0.237699
      CHANNELS 6 Xposition Yposition Zposition Zrotation Xrotation Yrotation
      JOINT rFoot
      {
        OFFSET 0.529163 -17.3815 -1.19582
        CHANNELS 6 Xposition Yposition Zposition Zrotation Xrotation Yrotation
        JOINT rToe
        {
          OFFSET -0.711591 -4.4863 4.0596
          CHANNELS 6 Xposition Yposition Zposition Zrotation Xrotation Yrotation
          End Site
          {
            OFFSET -0.869915 -1.10655 1.99006
          }
        }
      }
    }
  }
  JOINT lThigh
  {
    OFFSET 4.17848 -1.02486 0.046356
    CHANNELS 6 Xposition Yposition Zposition Zrotation Xrotation Yrotation
    JOINT lShin
    {
      OFFSET -1.27155 -17.465 -0.237699
      CHANNELS 6 Xposition Yposition Zposition Zrotation Xrotation Yrotation
      JOINT lFoot
      {
        OFFSET -0.529163 -17.3815 -1.19582
        CHANNELS 6 Xposition Yposition Zposition Zrotation Xrotation Yrotation
        JOINT lToe
        {
          OFFSET 0.711591 -4.4863 4.0596
          CHANNELS 6 Xposition Yposition Zposition Zrotation Xrotation Yrotation
          End Site
          {
            OFFSET 0.869915 -1.10655 1.99006
          }
        }
      }
    }
  }
}
MOTION
Frames:	4
Frame Time:	0.0333333
-13.4627 25.4562 -16.8768 1.90848 2.29312 -5.39606 -1.77636e-015 5.99393 0.287273 -6.60156 -1.25208 1.43371 0 6.65865 -0.856112 -13.1751 -2.66035 2.71496 0 8.65624 -1.42685 -2.44784 -17.9289 52.5042 -3.55271e-015 3.80999 -0.190247 -2.26613 28.9672 16.5975 -1.4963 7.5744 -1.52136 -32.6541 -0.666415 24.8684 -5.47506 -0.905672 0.485692 10.1607 -50.4818 24.1168 -11.3069 -0.201091 0.618544 15.3182 -46.3021 36.2337 -9.61414 -0.254739 3.48553 26.9923 -78.0871 -4.03098 0.176263 -0.07068 1.26622 -22.9419 42.766 29.3728 -1.04683 -0.546484 1.82182 1.30838 -1.28871 3.79417 -0.993472 -0.621916 0.655506 -3.55833 4.61945 -11.8799 -2.64253 0.566363 2.4162 -5.44663 6.02535 -12.4836 -1.39394 -0.635138 0.899356 42.3086 7.94515 -9.48753 -0.622395 -0.856016 0.402182 42.5202 7.96536 -9.54714 -3.20814 0.514427 1.52547 2.97693 3.38411 -6.03883 -1.56545 -0.497974 0.68919 52.7411 10.5331 -13.0893 -0.679943 -1.17582 0.444246 29.8755 7.56849 -6.3055 -3.47877 0.200518 0.597719 15.3514 -0.885499 -5.67858 -1.28208 -0.53155 0.44672 29.5699 8.25586 -7.59417 -0.710288 -0.970167 0.4032 31.0286 8.54415 -8.0605 -3.42483 -0.278904 -0.240415 8.86688 -4.53501 -3.62273 -1.05787 -0.635999 0.156459 28.4127 8.86937 -7.04364 -0.42815 -0.754232 0.287187 23.1003 7.52642 -5.42752 1.4963 7.5744 -1.52136 9.89514 0.308111 -2.60901 5.47506 -0.905672 0.485692 -91.301 8.30894 -12.7073 11.3069 -0.201091 0.618544 -6.433 -3.08346 -30.0993 9.61414 -0.254739 3.48553 141.898 -67.0178 178.777 -0.176263 -0.07068 1.26622 8.80201 23.369 -19.0425 1.04683 -0.546484 1.82182 -6.12341 -1.20943 -10.7537 0.993472 -0.621916 0.655506 0.561545 0.172235 1.00288 2.64253 0.566363 2.4162 -6.43845 3.42529 8.94295 1.39394 -0.635138 0.899356 -24.8992 5.81189 11.138 0.622395 -0.856016 0.402182 -36.0343 6.71641 16.5815 3.20814 0.514427 1.52547 -9.45673 2.47988 4.56075 1.56545 -0.497974 0.68919 -33.2458 7.90324 15.6012 0.679943 -1.17582 0.444246 -12.2836 4.045 5.31939 3.47877 0.200518 0.597719 -13.7765 1.03712 4.31467 1.28208 -0.53155 0.44672 -14.6636 5.1179 7.23312 0.710288 -0.970167 0.4032 -15.9128 5.45619 7.89085 3.42483 -0.278904 -0.240415 -3.00665 -2.69239 4.15166 1.05787 -0.635999 0.156459 -19.6298 7.01518 9.77792 0.42815 -0.754232 0.287187 -17.4552 6.42811 8.61313 -4.17848 -1.02486 0.046356 -28.6244 5.53879 -26.6547 1.27155 -17.465 -0.237699 74.5526 75.4279 -65.3714 0.529163 -17.3815 -1.19582 15.9168 23.7126 -8.57792 -0.711591 -4.4863 4.0596 -4.1193 18.8502 -3.73635 4.17848 -1.02486 0.046356 47.1163 -6.25393 12.3264 -1.27155 -17.465 -0.237699 6.6013 68.2913 -8.13286 -0.529163 -17.3815 -1.19582 -14.3591 34.4595 -1.09095 0.711591 -4.4863 4.0596 1.39469 22.377 5.63684 
-12.5438 25.1445 -17.0536 1.96573 2.45412 -9.71498 0 5.99393 0.287273 -6.46011 -1.25731 1.58008 0 6.65865 -0.856112 -12.8883 -2.68398 3.00984 0 8.65624 -1.42685 -2.58077 -17.7568 52.4761 0 3.80999 -0.190247 -2.36254 28.8767 16.5152 -1.4963 7.5744 -1.52136 -33.2318 -0.671941 24.6951 -5.47506 -0.905672 0.485692 9.2039 -50.8743 23.8815 -11.3069 -0.201091 0.618544 15.4299 -46.2466 36.2447 -9.61414 -0.254739 3.48553 13.7827 -77.2631 -16.8128 0.176263 -0.07068 1.26622 -23.0272 42.6377 29.5167 -1.04683 -0.546484 1.82182 1.33814 -1.31611 3.87805 -0.993472 -0.621916 0.655506 -3.57047 4.6391 -11.9264 -2.64253 0.566363 2.4162 -5.15873 6.02922 -12.4665 -1.39394 -0.635138 0.899356 42.3461 7.94869 -9.49803 -0.622395 -0.856016 0.402182 42.5718 7.97013 -9.56158 -3.20814 0.514427 1.52547 3.03835 3.34486 -5.98048 -1.56545 -0.497974 0.68919 52.7411 10.5331 -13.0893 -0.679943 -1.17582 0.444246 29.6506 7.52594 -6.24509 -3.47877 0.200518 0.597719 15.3356 -0.889253 -5.67605 -1.28208 -0.53155 0.44672 29.442 8.23007 -7.55353 -0.710288 -0.970167 0.4032 30.9033 8.51995 -8.02013 -3.42483 -0.278904 -0.240415 8.62253 -4.58389 -3.65425 -1.05787 -0.635999 0.156459 28.3715 8.85958 -7.03069 -0.42815 -0.754232 0.287187 22.9782 7.49366 -5.39178 1.4963 7.5744 -1.52136 9.56852 0.280848 -2.81377 5.47506 -0.905672 0.485692 -90.6806 8.04446 -12.9008 11.3069 -0.201091 0.618544 -5.80029 -2.63423 -30.2079 9.61414 -0.254739 3.48553 143.393 -66.0792 -179.049 -0.176263 -0.07068 1.26622 8.98975 23.6159 -19.2209 1.04683 -0.546484 1.82182 -6.12951 -1.21004 -10.7642 0.993472 -0.621916 0.655506 0.651856 0.200914 1.16446 2.64253 0.566363 2.4162 -6.41814 3.44157 9.00414 1.39394 -0.635138 0.899356 -25.0894 5.83626 11.2296 0.622395 -0.856016 0.402182 -36.0684 6.71755 16.5983 3.20814 0.514427 1.52547 -9.36354 2.44354 4.52711 1.56545 -0.497974 0.68919 -33.414 7.91834 15.6872 0.679943 -1.17582 0.444246 -12.248 4.03517 5.30301 3.47877 0.200518 0.597719 -13.7045 0.994144 4.33302 1.28208 -0.53155 0.44672 -14.6653 5.11837 7.234 0.710288 -0.970167 0.4032 -15.9192 5.45788 7.89417 3.42483 -0.278904 -0.240415 -2.81893 -2.79658 4.12689 1.05787 -0.635999 0.156459 -19.6223 7.01323 9.77384 0.42815 -0.754232 0.287187 -17.3561 6.40027 8.56036 -4.17848 -1.02486 0.046356 -29.0345 5.36612 -27.021 1.27155 -17.465 -0.237699 78.5509 75.559 -69.2025 0.529163 -17.3815 -1.19582 16.8673 24.5367 -7.96514 -0.711591 -4.4863 4.0596 -4.28013 18.4617 -3.80108 4.17848 -1.02486 0.046356 46.6748 -6.40031 11.8148 -1.27155 -17.465 -0.237699 6.79602 68.6464 -8.2105 -0.529163 -17.3815 -1.19582 -12.6752 34.944 -2.28388 0.711591 -4.4863 4.0596 1.43015 23.1508 5.74048 
-11.6608 24.8459 -17.1562 2.02593 2.55715 -14.0944 1.77636e-015 5.99393 0.287273 -6.3704 -1.26515 1.75966 -3.55271e-015 6.65865 -0.856112 -12.7044 -2.71727 3.36943 -3.55271e-015 8.65624 -1.42685 -2.71957 -17.6809 52.2856 -3.55271e-015 3.80999 -0.190247 -2.2844 28.5546 16.5229 -1.4963 7.5744 -1.52136 -33.5526 -0.670716 24.4678 -5.47506 -0.905672 0.485692 8.56206 -51.354 24.1019 -11.3069 -0.201091 0.618544 15.6709 -46.3775 36.2882 -9.61414 -0.254739 3.48553 2.72857 -75.3884 -27.4561 0.176263 -0.07068 1.26622 -23.1118 42.5091 29.6601 -1.04683 -0.546484 1.82182 1.36792 -1.34345 3.96193 -0.993472 -0.621916 0.655506 -3.5826 4.65877 -11.9729 -2.64253 0.566363 2.4162 -4.8708 6.03319 -12.4494 -1.39394 -0.635138 0.899356 42.3837 7.9522 -9.50853 -0.622395 -0.856016 0.402182 42.6234 7.97494 -9.57605 -3.20814 0.514427 1.52547 3.09986 3.30568 -5.92206 -1.56545 -0.497974 0.68919 52.7411 10.533 -13.0893 -0.679943 -1.17582 0.444246 29.4258 7.48317 -6.18487 -3.47877 0.200518 0.597719 15.32 -0.892979 -5.67349 -1.28208 -0.53155 0.44672 29.3142 8.2042 -7.51298 -0.710288 -0.970167 0.4032 30.778 8.49566 -7.97982 -3.42483 -0.278904 -0.240415 8.37823 -4.63266 -3.68601 -1.05787 -0.635999 0.156459 28.3304 8.84981 -7.01776 -0.42815 -0.754232 0.287187 22.8563 7.46089 -5.35613 1.4963 7.5744 -1.52136 9.30673 0.244945 -3.09271 5.47506 -0.905672 0.485692 -89.9743 7.6121 -12.7538 11.3069 -0.201091 0.618544 -5.35119 -2.0995 -30.7776 9.61414 -0.254739 3.48553 144.697 -65.054 -177.3 -0.176263 -0.07068 1.26622 9.17866 23.8621 -19.4004 1.04683 -0.546484 1.82182 -6.13561 -1.21065 -10.7748 0.993472 -0.621916 0.655506 0.742104 0.229856 1.32602 2.64253 0.566363 2.4162 -6.40106 3.45438 9.05029 1.39394 -0.635138 0.899356 -25.2615 5.85803 11.3126 0.622395 -0.856016 0.402182 -36.1024 6.71869 16.6151 3.20814 0.514427 1.52547 -9.25597 2.40377 4.48597 1.56545 -0.497974 0.68919 -33.5823 7.93321 15.7734 0.679943 -1.17582 0.444246 -12.2125 4.02532 5.28665 3.47877 0.200518 0.597719 -13.6325 0.951183 4.35148 1.28208 -0.53155 0.44672 -14.667 5.11882 7.23489 0.710288 -0.970167 0.4032 -15.9255 5.45959 7.89751 3.42483 -0.278904 -0.240415 -2.63125 -2.90086 4.10249 1.05787 -0.635999 0.156459 -19.6148 7.01132 9.76981 0.42815 -0.754232 0.287187 -17.2443 6.36869 8.50089 -4.17848 -1.02486 0.046356 -29.3913 5.16069 -27.4632 1.27155 -17.465 -0.237699 83.1237 75.641 -73.6254 0.529163 -17.3815 -1.19582 17.3159 24.8168 -8.02598 -0.711591 -4.4863 4.0596 -4.3793 18.4674 -3.8502 4.17848 -1.02486 0.046356 46.3165 -6.37805 11.4513 -1.27155 -17.465 -0.237699 7.14909 69.3859 -8.55347 -0.529163 -17.3815 -1.19582 -12.1708 34.9538 -2.62373 0.711591 -4.4863 4.0596 1.46428 23.9247 5.84425 
-10.7897 24.5653 -17.2063 2.07124 2.69561 -18.6297 0 5.99393 0.287273 -6.26355 -1.29283 1.93962 0 6.65865 -0.856112 -12.4853 -2.78893 3.72811 0 8.65624 -1.42685 -2.91783 -17.8983 52.3622 -1.77636e-015 3.80999 -0.190247 -2.04881 28.3532 16.3281 -1.4963 7.5744 -1.52136 -34.1317 -0.674873 24.2382 -5.47506 -0.905672 0.485692 8.20483 -51.7085 24.2684 -11.3069 -0.201091 0.618544 16.307 -46.6853 36.9737 -9.61414 -0.254739 3.48553 -6.04988 -73.3168 -35.7934 0.176263 -0.07068 1.26622 -23.1959 42.3804 29.803 -1.04683 -0.546484 1.82182 1.39777 -1.37074 4.04583 -0.993472 -0.621916 0.655506 -3.59471 4.67843 -12.0194 -2.64253 0.566363 2.4162 -4.58291 6.03723 -12.4324 -1.39394 -0.635138 0.899356 42.4212 7.95568 -9.51905 -0.622395 -0.856016 0.402182 42.675 7.97972 -9.59052 -3.20814 0.514427 1.52547 3.16136 3.26656 -5.86362 -1.56545 -0.497974 0.68919 52.7411 10.533 -13.0893 -0.679943 -1.17582 0.444246 29.201 7.44018 -6.12483 -3.47877 0.200518 0.597719 15.3043 -0.89675 -5.67096 -1.28208 -0.53155 0.44672 29.1864 8.17822 -7.47248 -0.710288 -0.970167 0.4032 30.6528 8.47131 -7.93956 -3.42483 -0.278904 -0.240415 8.13381 -4.68128 -3.71796 -1.05787 -0.635999 0.156459 28.2893 8.84004 -7.00485 -0.42815 -0.754232 0.287187 22.7343 7.42798 -5.32053 1.4963 7.5744 -1.52136 8.94468 0.210287 -3.35805 5.47506 -0.905672 0.485692 -89.1298 7.03297 -12.2366 11.3069 -0.201091 0.618544 -4.72569 -1.30833 -31.925 9.61414 -0.254739 3.48553 146.087 -63.579 -175.497 -0.176263 -0.07068 1.26622 9.3688 24.1079 -19.5812 1.04683 -0.546484 1.82182 -6.14171 -1.21125 -10.7854 0.993472 -0.621916 0.655506 0.832256 0.259053 1.48755 2.64253 0.566363 2.4162 -6.38396 3.46721 9.09645 1.39394 -0.635138 0.899356 -25.4337 5.87953 11.3957 0.622395 -0.856016 0.402182 -36.1287 6.71953 16.6281 3.20814 0.514427 1.52547 -9.14841 2.36392 4.4449 1.56545 -0.497974 0.68919 -33.7362 7.94658 15.8522 0.679943 -1.17582 0.444246 -12.1714 4.01392 5.26778 3.47877 0.200518 0.597719 -13.5605 0.908282 4.36997 1.28208 -0.53155 0.44672 -14.6687 5.11929 7.23576 0.710288 -0.970167 0.4032 -15.9319 5.46125 7.90082 3.42483 -0.278904 -0.240415 -2.44358 -3.0052 4.07842 1.05787 -0.635999 0.156459 -19.6044 7.00863 9.76425 0.42815 -0.754232 0.287187 -17.1324 6.33698 8.44148 -4.17848 -1.02486 0.046356 -29.7576 4.80701 -27.7153 1.27155 -17.465 -0.237699 87.7499 75.6358 -78.1092 0.529163 -17.3815 -1.19582 17.4439 25.0941 -7.78648 -0.711591 -4.4863 4.0596 -4.464 18.7354 -3.87888 4.17848 -1.02486 0.046356 46.0057 -6.19288 11.6897 -1.27155 -17.465 -0.237699 7.75058 70.5565 -9.1632 -0.529163 -17.3815 -1.19582 -11.327 34.3905 -3.09699 0.711591 -4.4863 4.0596 1.50971 24.6108 5.95327 
